<svg width="829" height="699" viewBox="0 0 829 699" fill="none" xmlns="http://www.w3.org/2000/svg">
<path d="M150.718 379.149L88.7236 344.541L15.4621 217.648L78.4826 181.263L151.744 308.156L150.718 379.149ZM98.6796 334.251L136.951 355.304L137.854 311.633L73.4434 200.07L34.2685 222.687L98.6796 334.251Z" fill="#0A0A0A"/>
<path d="M144.655 318.494C126.783 318.025 109.751 327.859 101.221 343.57L89.3598 336.793C100.492 316.739 121.783 304.447 144.716 304.833L144.655 318.494Z" fill="#0A0A0A"/>
<path d="M44.3617 208.849L56.4038 201.897L120.44 312.711L108.424 319.671L44.3617 208.849Z" fill="#0A0A0A"/>
<path d="M143.835 367.226L144.352 346.489C136.424 346.524 129.611 350.457 125.617 357.306L143.835 367.226Z" fill="#0A0A0A"/>
<path d="M75.5324 176.153L12.5119 212.538L-2.23871 186.99L-0.667198 183.811C9.17002 160.531 33.0156 146.764 58.0951 149.885L61.6334 150.113L75.5324 176.153ZM17.5511 193.732L56.726 171.114L52.3008 163.45C35.9528 162.669 20.6235 171.519 13.1259 186.067L17.5511 193.732Z" fill="#0A0A0A"/>
<path d="M183.5 594L185.708 591.969L183.5 594ZM710 521.5L712.838 522.474L710 521.5ZM649 331L651.971 331.416L649 331ZM721.188 339.412C722.244 340.689 724.135 340.868 725.412 339.812C726.689 338.756 726.868 336.865 725.812 335.588L721.188 339.412ZM149.84 386.612C145.743 394.465 142.816 403.347 140.863 412.879L146.741 414.083C148.607 404.974 151.374 396.643 155.16 389.388L149.84 386.612ZM138.57 467.557C140.077 485.673 143.429 504.096 147.896 521.266L153.703 519.755C149.312 502.876 146.024 484.793 144.549 467.06L138.57 467.557ZM166.349 572.638C171.164 582.447 176.251 590.551 181.292 596.031L185.708 591.969C181.219 587.09 176.43 579.559 171.735 569.995L166.349 572.638ZM181.292 596.031C186.269 601.441 192.475 608.071 199.825 615.311L204.035 611.036C196.786 603.896 190.655 597.347 185.708 591.969L181.292 596.031ZM240.617 650.15C254.382 660.133 269.897 669.636 287.003 677.341L289.467 671.87C272.802 664.363 257.64 655.084 244.14 645.293L240.617 650.15ZM338.517 693.084C347.226 694.503 356.208 695.345 365.45 695.5L365.55 689.5C356.609 689.351 347.915 688.536 339.482 687.162L338.517 693.084ZM365.45 695.5C372.861 695.624 380.109 694.959 387.206 693.649L386.118 687.748C379.383 688.991 372.534 689.617 365.55 689.5L365.45 695.5ZM427.983 679.274C440.623 672.901 452.846 665.188 464.737 657.163L461.381 652.19C449.574 660.157 437.592 667.71 425.282 673.916L427.983 679.274ZM499.749 632.99C512.016 624.705 524.011 617.215 535.935 611.651L533.397 606.214C521.041 611.98 508.736 619.681 496.391 628.018L499.749 632.99ZM575.58 601.87C582.174 601.969 588.813 603.055 595.534 605.34L597.466 599.66C590.138 597.168 582.877 595.978 575.669 595.871L575.58 601.87ZM595.534 605.34C602.798 607.81 609.536 609.702 615.805 611.036L617.054 605.168C611.055 603.891 604.546 602.067 597.466 599.66L595.534 605.34ZM658.331 609.736C671.634 604.565 681.222 594.296 689.201 580.449L684.002 577.453C676.408 590.633 667.722 599.648 656.157 604.143L658.331 609.736ZM705.975 542.075C708.227 535.857 710.493 529.308 712.838 522.474L707.162 520.527C704.819 527.356 702.567 533.864 700.334 540.031L705.975 542.075ZM712.838 522.474C715.959 513.376 717.088 504.558 716.692 495.962L710.699 496.237C711.06 504.097 710.033 512.159 707.162 520.527L712.838 522.474ZM699.726 446.24C695.517 438.876 690.85 431.573 686.15 424.303C681.437 417.013 676.698 409.768 672.275 402.429L667.136 405.526C671.621 412.967 676.425 420.313 681.111 427.561C685.81 434.829 690.397 442.011 694.517 449.217L699.726 446.24ZM652.624 356.146C651.129 348.142 650.781 339.928 651.971 331.416L646.029 330.584C644.74 339.799 645.124 348.667 646.726 357.248L652.624 356.146ZM651.971 331.416C653.635 319.516 656.783 312.386 660.454 308.404L656.043 304.337C651.175 309.617 647.767 318.159 646.029 330.584L651.971 331.416ZM702.868 320.799C708.133 325.398 712.722 330.06 715.999 333.579C717.635 335.336 718.94 336.803 719.832 337.826C720.278 338.338 720.62 338.739 720.85 339.01C720.965 339.145 721.051 339.248 721.108 339.316C721.136 339.349 721.157 339.375 721.171 339.391C721.177 339.399 721.182 339.405 721.185 339.408C721.187 339.41 721.188 339.411 721.188 339.412C721.188 339.412 721.188 339.412 721.188 339.412C721.188 339.412 721.188 339.412 721.188 339.412C721.188 339.412 721.188 339.412 723.5 337.5C725.812 335.588 725.812 335.588 725.812 335.588C725.811 335.588 725.811 335.587 725.811 335.587C725.81 335.586 725.81 335.586 725.809 335.585C725.808 335.583 725.806 335.581 725.803 335.578C725.799 335.572 725.792 335.564 725.783 335.554C725.766 335.533 725.741 335.503 725.709 335.465C725.644 335.387 725.55 335.275 725.427 335.13C725.181 334.84 724.82 334.418 724.355 333.884C723.425 332.817 722.077 331.301 720.39 329.49C717.02 325.871 712.28 321.053 706.816 316.28L702.868 320.799ZM183.5 594L187.916 589.938H187.916L183.5 594ZM710 521.5L715.675 523.447L710 521.5ZM649 331L654.942 331.831L649 331ZM718.876 341.324C720.988 343.877 724.77 344.236 727.324 342.124C729.877 340.012 730.236 336.23 728.124 333.676L718.876 341.324ZM147.18 385.225C142.928 393.375 139.921 402.534 137.924 412.277L149.68 414.686C151.503 405.788 154.189 397.733 157.819 390.775L147.18 385.225ZM135.58 467.806C137.103 486.113 140.488 504.706 144.993 522.021L156.606 519C152.253 502.265 148.998 484.352 147.539 466.811L135.58 467.806ZM163.656 573.96C168.531 583.891 173.767 592.282 179.084 598.062L187.916 589.938C183.703 585.359 179.063 578.114 174.428 568.673L163.656 573.96ZM179.084 598.062C184.076 603.488 190.319 610.159 197.72 617.448L206.14 608.899C198.941 601.808 192.848 595.299 187.916 589.938L179.084 598.062ZM238.856 652.578C252.753 662.658 268.444 672.272 285.771 680.076L290.699 669.135C274.254 661.727 259.269 652.56 245.901 642.864L238.856 652.578ZM338.035 696.045C346.881 697.486 356.008 698.342 365.399 698.499L365.6 686.501C356.809 686.354 348.26 685.553 339.965 684.201L338.035 696.045ZM365.399 698.499C373.024 698.627 380.472 697.942 387.751 696.599L385.573 684.798C379.02 686.008 372.37 686.614 365.6 686.501L365.399 698.499ZM429.333 681.953C442.138 675.497 454.482 667.703 466.415 659.65L459.702 649.703C447.939 657.642 436.077 665.114 423.931 671.237L429.333 681.953ZM501.428 635.476C513.656 627.218 525.496 619.833 537.203 614.37L532.129 603.495C519.556 609.362 507.096 617.168 494.712 625.532L501.428 635.476ZM575.535 604.87C581.823 604.964 588.15 605.998 594.569 608.181L598.431 596.819C590.801 594.225 583.229 592.983 575.714 592.871L575.535 604.87ZM594.569 608.181C601.923 610.681 608.776 612.607 615.18 613.971L617.679 602.234C611.814 600.985 605.421 599.196 598.431 596.819L594.569 608.181ZM659.418 612.532C673.59 607.023 683.63 596.127 691.8 581.946L681.403 575.956C674 588.802 665.765 597.19 655.07 601.347L659.418 612.532ZM708.796 543.096C711.057 536.853 713.33 530.283 715.675 523.447L704.325 519.553C701.982 526.381 699.737 532.868 697.513 539.01L708.796 543.096ZM715.675 523.447C718.922 513.984 720.102 504.789 719.689 495.824L707.702 496.375C708.047 503.866 707.07 511.551 704.325 519.553L715.675 523.447ZM702.33 444.751C698.076 437.309 693.369 429.944 688.669 422.675C683.943 415.363 679.237 408.168 674.844 400.881L664.567 407.075C669.082 414.567 673.92 421.963 678.592 429.19C683.291 436.458 687.838 443.578 691.913 450.706L702.33 444.751ZM655.573 355.596C654.132 347.879 653.801 339.993 654.942 331.831L643.058 330.169C641.72 339.734 642.121 348.93 643.777 357.798L655.573 355.596ZM654.942 331.831C656.57 320.195 659.587 313.77 662.66 310.438L653.837 302.304C648.371 308.232 644.833 317.48 643.058 330.169L654.942 331.831ZM700.895 323.059C706.06 327.57 710.573 332.155 713.804 335.623C715.415 337.353 716.697 338.795 717.57 339.797C718.007 340.298 718.34 340.689 718.562 340.949C718.672 341.08 718.754 341.178 718.807 341.241C718.834 341.273 718.853 341.295 718.864 341.309C718.87 341.316 718.874 341.321 718.876 341.323C718.877 341.325 718.877 341.325 718.878 341.325C718.878 341.325 718.877 341.325 718.877 341.325C718.877 341.325 718.877 341.324 718.877 341.324C718.877 341.324 718.876 341.324 723.5 337.5C728.124 333.676 728.124 333.676 728.123 333.675C728.123 333.675 728.123 333.675 728.122 333.674C728.121 333.673 728.121 333.672 728.12 333.671C728.118 333.669 728.115 333.666 728.113 333.663C728.107 333.656 728.099 333.647 728.09 333.635C728.071 333.612 728.044 333.58 728.01 333.539C727.941 333.457 727.843 333.34 727.715 333.19C727.461 332.89 727.091 332.458 726.617 331.913C725.668 330.825 724.298 329.284 722.585 327.445C719.169 323.777 714.354 318.881 708.789 314.021L700.895 323.059Z" fill="#0A0A0A" fill-opacity="0.8"/>
<rect x="654.192" y="12.2444" width="198.14" height="198.14" rx="29.5" transform="rotate(34.8964 654.192 12.2444)" stroke="#0A0A0A" stroke-opacity="0.8" stroke-width="17"/>
</svg>
