<svg width="215" height="68" viewBox="0 0 215 68" fill="none" xmlns="http://www.w3.org/2000/svg">
<path d="M123.48 3.69475C121.48 -6.30526 109.305 30.9174 106.805 37.9174C104.305 43.9174 102.952 48.075 101.305 47.9174C99.5323 47.7478 99.9301 38.7554 100.043 37.7715C100.985 29.5938 105.889 16.0503 114.687 14.2717C117.478 13.7075 122.305 12.4173 125.305 15.9173C128.305 19.4173 131.305 25.4173 125.97 30.1863C120.634 34.9553 114.187 35.6863 109.97 37.1863C112.97 39.4173 119.48 37.7715 123.48 46.6947C127.48 55.618 122.48 65.6947 108.98 66.6947C95.48 67.6948 89.48 56 92.98 54C96.48 52 105.99 50 113.48 49" stroke="#23E5A5" stroke-width="2.2" stroke-linecap="round" stroke-linejoin="round"/>
<path d="M137.69 42.1794C136.761 40.9707 135.715 38.9349 134.251 38.4461C131.912 37.6653 129.282 39.1102 127.741 41.0116C125.665 43.5718 124.437 47.5102 126.669 50.4243C129.213 53.747 134.195 53.0087 137.002 50.5128C139.688 48.1249 140.531 47.1794 141.031 42.1794C141.031 39.1794 138.966 36.0834 138.531 38.6488C137.431 45.1339 141.98 52.1573 148.48 51.6573" stroke="#23E5A5" stroke-width="2.2" stroke-linecap="round" stroke-linejoin="round"/>
<path d="M142.611 37.7833C143.859 40.8338 145.611 46.2833 148.111 49.2833C151.543 53.4006 153.111 51.7833 153.111 48.2833C153.111 44.7833 150.111 31.2833 154.611 39.2833" stroke="#23E5A5" stroke-width="2.2" stroke-linecap="round" stroke-linejoin="round"/>
<path d="M156.164 35.6947C156.164 36.55 157.351 51.3206 157.39 52.1754C157.413 52.6594 157.618 54.0398 157.39 53.6144C155.699 50.4522 154.895 46.7547 155.963 43.1984C157.255 38.8972 161.871 37.975 165.705 37.3232C169.539 36.6713 179.125 35.3677 174.013 38.6268" stroke="#23E5A5" stroke-width="2.2" stroke-linecap="round" stroke-linejoin="round"/>
<path d="M190.48 13.6947C191.48 23.1947 193.561 0.641289 191.48 2.19475C188.48 5.19475 184.38 20.5505 182.067 26.3029C179.755 32.0553 174.959 50.077 176.067 50.8029C177.067 46.3029 183.567 33.3029 189.567 28.8029C195.567 24.3029 199.938 25.8029 199.938 25.8029C199.938 25.8029 183.938 38.3029 180.938 43.3029C180.938 43.3029 188.567 55.8029 184.567 59.3029C180.567 62.8029 172.567 61.8029 166.067 57.3029C159.567 52.8029 157.922 44.0881 160.934 42.559C161.926 42.0556 165.321 42.6961 165.954 42.8481C168.525 43.465 171.995 44.7977 174.339 45.8706C183.192 49.923 191.398 55.3122 199.938 59.9581C200.286 60.1473 212.359 67.008 213.567 64.8029C213.925 64.1502 214.067 63.3029 213.067 60.8029C212.067 58.3029 205.067 49.8029 209.567 52.8029" stroke="#23E5A5" stroke-width="2.2" stroke-linecap="round" stroke-linejoin="round"/>
<path d="M5.94915 32.2031C1.94916 39.7031 -3.05083 35.7031 6.42872 29.1135C15.9083 22.5238 52.2276 10.4732 61.5 9C72.5 7.25238 96 7.49993 99 11.5" stroke="#23E5A5" stroke-width="2" stroke-linecap="round" stroke-linejoin="round"/>
<path d="M36 20.6947C33.5 19.1947 29.4492 27.7032 29.4492 27.7032C29.4492 27.7032 18.6457 53.801 19.5 62.1947C19.6457 68.301 33.0762 63.3816 40 62.1947C57.5 59.1947 64.832 63.9948 71.4999 63.1947" stroke="#23E5A5" stroke-width="2" stroke-linecap="round" stroke-linejoin="round"/>
<path d="M17.6524 45.6947C12.1524 44.1947 15.1524 40.1947 27.1524 41.6947C39.1524 43.1947 47.1524 37.6947 49.6524 35.1947" stroke="#23E5A5" stroke-width="2" stroke-linecap="round" stroke-linejoin="round"/>
<path d="M38 42.9999C38 42.9999 40.1039 50.3747 38.0531 53.8831C38.0531 53.8831 37.1039 55.3747 36.1039 53.3747C35.1039 51.3747 41.553 40.3895 45.553 40.8895C49.553 41.3895 47.5531 43.8831 47.0531 44.8831C46.5531 45.8831 41.6382 56.4029 45.0531 54.3831" stroke="#23E5A5" stroke-width="2" stroke-linecap="round" stroke-linejoin="round"/>
<path d="M66 37.6947C64 39.6947 51.4857 40.6731 52.2483 43.0034C52.5849 44.0318 54.6097 44.4309 55.4548 44.6723C57.4206 45.234 59.7551 45.5254 61.5261 46.6041C62.9426 47.4669 62.5 49.6947 61.5 50.6947C59.2893 52.7102 57 53.6947 52.5 53.6947C48 53.6947 46 52.3856 46 50.1946C47 45.6946 58.5 45.6947 54.5 47.1947" stroke="#23E5A5" stroke-width="2" stroke-linecap="round" stroke-linejoin="round"/>
<path d="M72.2227 39.6947C72.2227 39.6947 68.4453 38.8294 66.2226 40.7621C64 42.6947 63.2774 46.1274 64 49.1947C64.7226 52.262 65 53.6947 68.5 53.6947C72 53.6947 72.2227 47.262 72.2227 44.262C72.2227 41.262 69.5 41.6947 70 46.1947C70.5 50.6947 70.5 52.0056 73 53C75.5 53.9943 75.5 47.5 75.5 47.5" stroke="#23E5A5" stroke-width="2" stroke-linecap="round" stroke-linejoin="round"/>
<path d="M78.5 36.5C78.5 36.5 81.9089 53.7177 80.5049 55.6509C79.1009 57.5841 77.8184 51 77.8184 51C77.8184 51 76.3185 46 80.0655 40.9519C85.0642 38.7268 88.5 47.5 96 39" stroke="#23E5A5" stroke-width="2" stroke-linecap="round" stroke-linejoin="round"/>
</svg>
