<svg  viewBox="0 0 32 32" fill="none" xmlns="http://www.w3.org/2000/svg">
<path d="M21.4 16C21.4 13 19 10.6 16 10.6C13 10.6 10.6 13 10.6 16C10.6 19 13 21.4 16 21.4C19 21.4 21.4 19 21.4 16ZM24.2 16C24.2 20.6 20.6 24.2 16 24.2C11.4 24.2 7.8 20.6 7.8 16C7.8 11.4 11.4 7.8 16 7.8C20.6 7.8 24.2 11.4 24.2 16ZM26.4 7.4C26.4 8.6 25.6 9.4 24.4 9.4C23.2 9.4 22.4 8.6 22.4 7.4C22.4 6.2 23.2 5.4 24.4 5.4C25.6 5.4 26.4 6.4 26.4 7.4ZM16 2.8C13.6 2.8 8.6 2.6 6.6 3.4C5.2 4 4 5.2 3.6 6.6C2.8 8.6 3 13.6 3 16C3 18.4 2.8 23.4 3.6 25.4C4 26.8 5.2 28 6.6 28.4C8.6 29.2 13.8 29 16 29C18.2 29 23.4 29.2 25.4 28.4C26.8 27.8 27.8 26.8 28.4 25.4C29.2 23.2 29 18.2 29 16C29 13.8 29.2 8.6 28.4 6.6C28 5.2 26.8 4 25.4 3.6C23.4 2.6 18.4 2.8 16 2.8ZM32 16V22.6C32 25 31.2 27.4 29.4 29.4C27.6 31.2 25.2 32 22.6 32H9.4C7 32 4.6 31.2 2.6 29.4C1 27.6 0 25.2 0 22.6V16V9.4C0 6.8 1 4.4 2.6 2.6C4.6 1 7 0 9.4 0H22.6C25 0 27.4 0.8 29.4 2.6C31 4.4 32 6.8 32 9.4V16Z" />
</svg>
